<svg width="960" height="720" xmlns="http://www.w3.org/2000/svg" xmlns:xlink="http://www.w3.org/1999/xlink" overflow="hidden"><defs><filter id="fx0" x="-10%" y="-10%" width="120%" height="120%" filterUnits="userSpaceOnUse" primitiveUnits="userSpaceOnUse"><feComponentTransfer color-interpolation-filters="sRGB"><feFuncR type="discrete" tableValues="0 0"/><feFuncG type="discrete" tableValues="0 0"/><feFuncB type="discrete" tableValues="0 0"/><feFuncA type="linear" slope="0.4" intercept="0"/></feComponentTransfer><feGaussianBlur stdDeviation="1.09914 1.09914"/></filter><clipPath id="clip1"><rect x="0" y="0" width="960" height="720"/></clipPath><clipPath id="clip2"><rect x="43" y="43" width="296" height="59"/></clipPath><clipPath id="clip3"><rect x="0" y="0" width="385" height="162"/></clipPath></defs><g clip-path="url(#clip1)"><rect x="0" y="0" width="960" height="720" fill="#FFFFFF"/><g clip-path="url(#clip2)" filter="url(#fx0)" transform="translate(289 291)"><g clip-path="url(#clip3)"><path d="M4.18359-37.3008 6.46875-37.3008 6.46875-40.1836C6.46875-43.1836 6.84961-45.5684 7.61133-47.3379 8.37305-49.1074 9.66211-50.3965 11.4785-51.2051 13.2949-52.0137 15.7852-52.418 18.9492-52.418 24.5508-52.418 27.3516-51.0469 27.3516-48.3047 27.3516-47.4141 27.0586-46.6523 26.4727-46.0195 25.8867-45.3867 25.1953-45.0703 24.3984-45.0703 24.0234-45.0703 23.3789-45.1406 22.4648-45.2812 21.5508-45.4219 20.7773-45.4922 20.1445-45.4922 18.4102-45.4922 17.2969-44.9824 16.8047-43.9629 16.3125-42.9434 16.0664-41.4844 16.0664-39.5859L16.0664-37.3008 18.4219-37.3008C22.0781-37.3008 23.9062-36.1992 23.9062-33.9961 23.9062-32.4258 23.4199-31.4297 22.4473-31.0078 21.4746-30.5859 20.1328-30.375 18.4219-30.375L16.0664-30.375 16.0664-4.95703C16.0664-3.05859 15.6152-1.61133 14.7129-0.615234 13.8105 0.380859 12.6445 0.878906 11.2148 0.878906 9.85547 0.878906 8.72461 0.380859 7.82227-0.615234 6.91992-1.61133 6.46875-3.05859 6.46875-4.95703L6.46875-30.375 3.83203-30.375C2.40234-30.375 1.30078-30.6973 0.527344-31.3418-0.246094-31.9863-0.632812-32.8242-0.632812-33.8555-0.632812-36.1523 0.972656-37.3008 4.18359-37.3008ZM52.2682-4.53516C49.9479-2.73047 47.7037-1.37695 45.5358-0.474609 43.3678 0.427734 40.9361 0.878906 38.2408 0.878906 35.7799 0.878906 33.6178 0.392578 31.7545-0.580078 29.8912-1.55273 28.4557-2.87109 27.4479-4.53516 26.4401-6.19922 25.9361-8.00391 25.9361-9.94922 25.9361-12.5742 26.7682-14.8125 28.4322-16.6641 30.0963-18.5156 32.3815-19.7578 35.2877-20.3906 35.8971-20.5312 37.4088-20.8477 39.8229-21.3398 42.2369-21.832 44.3053-22.2832 46.0279-22.6934 47.7506-23.1035 49.6197-23.6016 51.6354-24.1875 51.5182-26.7187 51.0084-28.5762 50.1061-29.7598 49.2037-30.9434 47.3346-31.5352 44.4986-31.5352 42.0611-31.5352 40.2272-31.1953 38.9967-30.5156 37.7662-29.8359 36.7115-28.8164 35.8326-27.457 34.9537-26.0977 34.3326-25.2012 33.9693-24.7676 33.6061-24.334 32.8268-24.1172 31.6315-24.1172 30.5533-24.1172 29.6217-24.4629 28.8365-25.1543 28.0514-25.8457 27.6588-26.7305 27.6588-27.8086 27.6588-29.4961 28.2565-31.1367 29.4518-32.7305 30.6471-34.3242 32.5104-35.6367 35.0416-36.668 37.5729-37.6992 40.7252-38.2148 44.4986-38.2148 48.7174-38.2148 52.0338-37.7168 54.4479-36.7207 56.8619-35.7246 58.567-34.1484 59.5631-31.9922 60.5592-29.8359 61.0572-26.9766 61.0572-23.4141 61.0572-21.1641 61.0514-19.2539 61.0397-17.6836 61.0279-16.1133 61.0104-14.3672 60.9869-12.4453 60.9869-10.6406 61.2858-8.75977 61.8834-6.80273 62.4811-4.8457 62.7799-3.58594 62.7799-3.02344 62.7799-2.03906 62.317-1.14258 61.3912-0.333984 60.4654 0.474609 59.4166 0.878906 58.2447 0.878906 57.2604 0.878906 56.2877 0.416016 55.3268-0.509766 54.3658-1.43555 53.3463-2.77734 52.2682-4.53516ZM51.6354-18.4219C50.2291-17.9062 48.1842-17.3613 45.5006-16.7871 42.817-16.2129 40.9596-15.791 39.9283-15.5215 38.8971-15.252 37.9127-14.7246 36.9752-13.9395 36.0377-13.1543 35.569-12.0586 35.569-10.6523 35.569-9.19922 36.1197-7.96289 37.2213-6.94336 38.3229-5.92383 39.7643-5.41406 41.5455-5.41406 43.444-5.41406 45.1959-5.83008 46.8014-6.66211 48.4068-7.49414 49.5846-8.56641 50.3346-9.87891 51.2018-11.332 51.6354-13.7227 51.6354-17.0508ZM101.746-11.6719C101.746-9.02344 101.102-6.75586 99.8125-4.86914 98.5234-2.98242 96.6191-1.55273 94.0996-0.580078 91.58 0.392578 88.5156 0.878906 84.9062 0.878906 81.4609 0.878906 78.5078 0.351562 76.0468-0.703125 73.5859-1.75781 71.7695-3.07617 70.5976-4.6582 69.4257-6.24023 68.8398-7.82812 68.8398-9.42188 68.8398-10.4766 69.2148-11.3789 69.9648-12.1289 70.7148-12.8789 71.664-13.2539 72.8125-13.2539 73.8203-13.2539 74.5937-13.0078 75.1328-12.5156 75.6718-12.0234 76.1875-11.332 76.6796-10.4414 77.664-8.73047 78.8418-7.45312 80.2128-6.60938 81.5839-5.76562 83.4531-5.34375 85.8203-5.34375 87.7421-5.34375 89.3183-5.77148 90.5488-6.62695 91.7793-7.48242 92.3945-8.46094 92.3945-9.5625 92.3945-11.25 91.7558-12.4805 90.4785-13.2539 89.2011-14.0273 87.0976-14.7656 84.1679-15.4688 80.8632-16.2891 78.1738-17.1504 76.0996-18.0527 74.0253-18.9551 72.3671-20.1445 71.125-21.6211 69.8828-23.0977 69.2617-24.9141 69.2617-27.0703 69.2617-28.9922 69.8359-30.8086 70.9843-32.5195 72.1328-34.2305 73.8261-35.5957 76.0644-36.6152 78.3027-37.6348 81.0039-38.1445 84.1679-38.1445 86.6523-38.1445 88.8847-37.8867 90.8652-37.3711 92.8457-36.8555 94.498-36.1641 95.8222-35.2969 97.1464-34.4297 98.1543-33.4688 98.8457-32.4141 99.5371-31.3594 99.8828-30.3281 99.8828-29.3203 99.8828-28.2187 99.5136-27.3164 98.7753-26.6133 98.0371-25.9102 96.9882-25.5586 95.6289-25.5586 94.6445-25.5586 93.8066-25.8398 93.1152-26.4023 92.4238-26.9648 91.6328-27.8086 90.7421-28.9336 90.0156-29.8711 89.1601-30.6211 88.1757-31.1836 87.1914-31.7461 85.8554-32.0273 84.1679-32.0273 82.4335-32.0273 80.9921-31.6582 79.8437-30.9199 78.6953-30.1816 78.121-29.2617 78.121-28.1602 78.121-27.1523 78.5429-26.3262 79.3867-25.6816 80.2304-25.0371 81.3671-24.5039 82.7968-24.082 84.2265-23.6602 86.1953-23.1445 88.7031-22.5352 91.6796-21.8086 94.1113-20.9414 95.998-19.9336 97.8847-18.9258 99.3144-17.7363 100.287-16.3652 101.26-14.9941 101.746-13.4297 101.746-11.6719ZM110.371-37.3008 111.426-37.3008 111.426-43.0664C111.426-44.6133 111.467-45.8262 111.549-46.7051 111.631-47.584 111.859-48.3398 112.234-48.9727 112.609-49.6289 113.148-50.1621 113.852-50.5723 114.555-50.9824 115.34-51.1875 116.207-51.1875 117.426-51.1875 118.527-50.7305 119.512-49.8164 120.168-49.207 120.584-48.4629 120.76-47.584 120.936-46.7051 121.023-45.457 121.023-43.8398L121.023-37.3008 124.539-37.3008C125.898-37.3008 126.936-36.9785 127.65-36.334 128.365-35.6895 128.723-34.8633 128.723-33.8555 128.723-32.5664 128.213-31.6641 127.193-31.1484 126.174-30.6328 124.715-30.375 122.816-30.375L121.023-30.375 121.023-12.7266C121.023-11.2266 121.076-10.0723 121.182-9.26367 121.287-8.45508 121.568-7.79883 122.025-7.29492 122.482-6.79102 123.227-6.53906 124.258-6.53906 124.82-6.53906 125.582-6.63867 126.543-6.83789 127.504-7.03711 128.254-7.13672 128.793-7.13672 129.566-7.13672 130.264-6.82617 130.885-6.20508 131.506-5.58398 131.816-4.81641 131.816-3.90234 131.816-2.35547 130.973-1.17187 129.285-0.351562 127.598 0.46875 125.172 0.878906 122.008 0.878906 119.008 0.878906 116.734 0.375 115.187-0.632812 113.641-1.64062 112.627-3.03516 112.146-4.81641 111.666-6.59766 111.426-8.97656 111.426-11.9531L111.426-30.375 110.16-30.375C108.777-30.375 107.723-30.7031 106.996-31.3594 106.269-32.0156 105.906-32.8477 105.906-33.8555 105.906-34.8633 106.287-35.6895 107.049-36.334 107.811-36.9785 108.918-37.3008 110.371-37.3008ZM142.129-32.168 149.898-10.3711 158.266-33.1172C158.922-34.9453 159.566-36.2402 160.199-37.002 160.832-37.7637 161.793-38.1445 163.082-38.1445 164.301-38.1445 165.338-37.7344 166.193-36.9141 167.049-36.0938 167.477-35.1445 167.477-34.0664 167.477-33.6445 167.4-33.1523 167.248-32.5898 167.096-32.0273 166.92-31.5 166.721-31.0078 166.521-30.5156 166.293-29.9531 166.035-29.3203L156.824-6.46875C156.566-5.8125 156.232-4.98047 155.822-3.97266 155.412-2.96484 154.955-2.10352 154.451-1.38867 153.947-0.673828 153.326-0.117187 152.588 0.28125 151.85 0.679687 150.953 0.878906 149.898 0.878906 148.539 0.878906 147.455 0.568359 146.646-0.0527344 145.838-0.673828 145.24-1.35352 144.853-2.0918 144.467-2.83008 143.816-4.28906 142.902-6.46875L133.762-29.0742C133.551-29.6367 133.334-30.1992 133.111-30.7617 132.889-31.3242 132.701-31.8984 132.549-32.4844 132.396-33.0703 132.32-33.5742 132.32-33.9961 132.32-34.6523 132.519-35.3027 132.918-35.9473 133.316-36.5918 133.867-37.1191 134.57-37.5293 135.273-37.9395 136.035-38.1445 136.855-38.1445 138.449-38.1445 139.545-37.6875 140.143-36.7734 140.74-35.8594 141.402-34.3242 142.129-32.168ZM183.941-32.6953 183.941-4.95703C183.941-3.03516 183.484-1.58203 182.57-0.597656 181.656 0.386719 180.496 0.878906 179.09 0.878906 177.684 0.878906 176.541 0.375 175.662-0.632812 174.783-1.64062 174.344-3.08203 174.344-4.95703L174.344-32.4141C174.344-34.3125 174.783-35.7422 175.662-36.7031 176.541-37.6641 177.684-38.1445 179.09-38.1445 180.496-38.1445 181.656-37.6641 182.57-36.7031 183.484-35.7422 183.941-34.4062 183.941-32.6953ZM179.195-42.6094C177.859-42.6094 176.717-43.0195 175.768-43.8398 174.818-44.6602 174.344-45.8203 174.344-47.3203 174.344-48.6797 174.83-49.7988 175.803-50.6777 176.775-51.5566 177.906-51.9961 179.195-51.9961 180.437-51.9961 181.539-51.5977 182.5-50.8008 183.461-50.0039 183.941-48.8437 183.941-47.3203 183.941-45.8438 183.473-44.6895 182.535-43.8574 181.598-43.0254 180.484-42.6094 179.195-42.6094ZM220.633-16.2773 201.859-16.2773C201.883-14.0977 202.322-12.1758 203.178-10.5117 204.033-8.84766 205.17-7.59375 206.588-6.75 208.006-5.90625 209.57-5.48438 211.281-5.48438 212.43-5.48438 213.478-5.61914 214.428-5.88867 215.377-6.1582 216.297-6.58008 217.187-7.1543 218.078-7.72852 218.898-8.34375 219.648-9 220.398-9.65625 221.371-10.5469 222.566-11.6719 223.059-12.0937 223.762-12.3047 224.676-12.3047 225.66-12.3047 226.457-12.0352 227.066-11.4961 227.676-10.957 227.98-10.1953 227.98-9.21094 227.98-8.34375 227.641-7.33008 226.961-6.16992 226.281-5.00977 225.256-3.89648 223.885-2.83008 222.514-1.76367 220.791-0.878906 218.717-0.175781 216.643 0.527344 214.258 0.878906 211.562 0.878906 205.398 0.878906 200.605-0.878906 197.184-4.39453 193.762-7.91016 192.051-12.6797 192.051-18.7031 192.051-21.5391 192.473-24.1699 193.316-26.5957 194.16-29.0215 195.391-31.1016 197.008-32.8359 198.625-34.5703 200.617-35.9004 202.984-36.8262 205.352-37.752 207.977-38.2148 210.859-38.2148 214.609-38.2148 217.826-37.4238 220.51-35.8418 223.193-34.2598 225.203-32.2148 226.539-29.707 227.875-27.1992 228.543-24.6445 228.543-22.043 228.543-19.6289 227.852-18.0645 226.469-17.3496 225.086-16.6348 223.141-16.2773 220.633-16.2773ZM201.859-21.7266 219.262-21.7266C219.027-25.0078 218.143-27.4629 216.607-29.0918 215.072-30.7207 213.051-31.5352 210.543-31.5352 208.152-31.5352 206.189-30.709 204.654-29.0566 203.119-27.4043 202.187-24.9609 201.859-21.7266ZM241.707-32.168 247.965-10.7227 253.66-30.6562C254.269-32.7422 254.721-34.166 255.014-34.9277 255.307-35.6895 255.857-36.416 256.666-37.1074 257.475-37.7988 258.582-38.1445 259.988-38.1445 261.418-38.1445 262.537-37.7988 263.346-37.1074 264.154-36.416 264.723-35.666 265.051-34.8574 265.379-34.0488 265.836-32.6484 266.422-30.6562L272.117-10.7227 278.445-32.168C278.867-33.7148 279.207-34.834 279.465-35.5254 279.723-36.2168 280.156-36.8262 280.766-37.3535 281.375-37.8809 282.254-38.1445 283.402-38.1445 284.551-38.1445 285.547-37.7461 286.391-36.9492 287.234-36.1523 287.656-35.2148 287.656-34.1367 287.656-33.1523 287.293-31.6641 286.566-29.6719L278.726-6.67969C278.047-4.73438 277.519-3.32812 277.144-2.46094 276.769-1.59375 276.178-0.820312 275.369-0.140625 274.56 0.539062 273.453 0.878906 272.047 0.878906 270.594 0.878906 269.451 0.515625 268.619-0.210938 267.787-0.9375 267.172-1.82812 266.773-2.88281 266.375-3.9375 265.941-5.30859 265.473-6.99609L259.988-25.6992 254.68-6.99609C253.976-4.39453 253.215-2.43164 252.394-1.10742 251.574 0.216797 250.133 0.878906 248.07 0.878906 247.016 0.878906 246.119 0.673828 245.381 0.263672 244.642-0.146484 244.027-0.732422 243.535-1.49414 243.043-2.25586 242.609-3.1582 242.234-4.20117 241.859-5.24414 241.566-6.07031 241.355-6.67969L233.586-29.6719C232.812-31.8281 232.426-33.3164 232.426-34.1367 232.426-35.168 232.836-36.0938 233.656-36.9141 234.476-37.7344 235.484-38.1445 236.68-38.1445 238.273-38.1445 239.351-37.6934 239.914-36.791 240.476-35.8887 241.074-34.3477 241.707-32.168Z" transform="translate(47.5575 98)"/></g></g><text font-family="Arial Rounded MT Bold,Arial Rounded MT Bold_MSFontService,sans-serif" font-weight="700" font-size="72" transform="translate(335.364 387)">fastview</text><path d="M315.5 328.5C315.5 319.664 322.664 312.5 331.5 312.5L629.5 312.5C638.337 312.5 645.5 319.664 645.5 328.5L645.5 392.5C645.5 401.337 638.337 408.5 629.5 408.5L331.5 408.5C322.664 408.5 315.5 401.337 315.5 392.5Z" stroke="#7F7F7F" stroke-width="1.33333" stroke-miterlimit="8" fill="#A6A6A6" fill-rule="evenodd" fill-opacity="0.121569"/></g></svg>